<svg width="783" height="411" viewBox="0 0 783 411" fill="none" xmlns="http://www.w3.org/2000/svg">
<rect x="515" y="36" width="132" height="87" rx="43.5" fill="#AE2B7A"/>
<path d="M567.84 61.5508C567.111 65.2096 566.642 67.5534 566.434 68.582C566.225 69.5977 566.095 70.2422 566.043 70.5156L564.559 78.3672L567.273 75.8086C568.432 74.7148 569.344 73.9792 570.008 73.6016C570.685 73.224 571.336 73.0352 571.961 73.0352C573.003 73.0352 573.836 73.4128 574.461 74.168C575.086 74.9102 575.398 75.9193 575.398 77.1953C575.398 78.3932 575.105 80.2031 574.52 82.625C573.934 85.0339 573.641 86.7461 573.641 87.7617C573.641 88.1393 573.706 88.4258 573.836 88.6211C573.966 88.8164 574.155 88.9141 574.402 88.9141C574.546 88.9141 574.715 88.862 574.91 88.7578C575.105 88.6536 575.333 88.4974 575.594 88.2891L576.844 87.1562L577.527 88.6016L575.281 90.6328C574.617 91.2448 573.973 91.7135 573.348 92.0391C572.723 92.3646 572.169 92.5273 571.688 92.5273C570.919 92.5273 570.301 92.2214 569.832 91.6094C569.363 90.9844 569.129 90.1576 569.129 89.1289C569.129 87.9049 569.428 86.0169 570.027 83.4648C570.626 80.8997 570.926 79.1029 570.926 78.0742C570.926 77.6576 570.835 77.332 570.652 77.0977C570.483 76.8503 570.255 76.7266 569.969 76.7266C569.37 76.7266 567.898 77.7096 565.555 79.6758C564.943 80.1966 564.467 80.6003 564.129 80.8867L562.918 87.4883C562.749 88.4128 562.618 89.1875 562.527 89.8125C562.436 90.4245 562.365 91.0039 562.312 91.5508L557.488 92.5273C558.113 89.832 558.908 85.8477 559.871 80.5742L560.008 79.832L560.633 76.1992C561.154 73.4388 561.57 71.069 561.883 69.0898C562.195 67.0977 562.352 65.8802 562.352 65.4375C562.352 65.0599 562.241 64.7669 562.02 64.5586C561.811 64.3503 561.512 64.2461 561.121 64.2461C560.939 64.2461 560.613 64.2656 560.145 64.3047C560.053 64.3047 559.982 64.3112 559.93 64.3242L559.754 62.8008C561.147 62.6706 562.514 62.5078 563.855 62.3125C565.197 62.1042 566.525 61.8503 567.84 61.5508ZM587.762 61.9219L589.207 63.3672C589.533 63.6927 589.773 64.0052 589.93 64.3047C590.086 64.5911 590.164 64.8906 590.164 65.2031C590.164 65.5807 590.034 65.9258 589.773 66.2383C589.513 66.5508 589.109 66.8568 588.562 67.1562L586.59 68.2305L585.242 66.7656L585.164 66.6875C584.552 66.0234 584.246 65.4505 584.246 64.9688C584.246 64.5781 584.37 64.2201 584.617 63.8945C584.865 63.569 585.242 63.2695 585.75 62.9961L587.762 61.9219ZM588.484 87.1172L589.148 88.6406C587.495 90.1901 586.238 91.2318 585.379 91.7656C584.52 92.2995 583.725 92.5664 582.996 92.5664C582.202 92.5664 581.577 92.2865 581.121 91.7266C580.665 91.1667 580.438 90.3919 580.438 89.4023C580.438 88.556 580.796 86.707 581.512 83.8555C581.603 83.4909 581.668 83.224 581.707 83.0547C582.072 81.6094 582.345 80.4375 582.527 79.5391C582.71 78.6406 582.801 77.9961 582.801 77.6055C582.801 77.2799 582.716 77.0195 582.547 76.8242C582.378 76.6159 582.156 76.5117 581.883 76.5117C581.661 76.5117 581.382 76.5833 581.043 76.7266C580.704 76.8698 580.262 77.1107 579.715 77.4492L579.07 76.082L581.766 74.3242C582.378 73.9076 582.951 73.5951 583.484 73.3867C584.031 73.1784 584.52 73.0742 584.949 73.0742C585.743 73.0742 586.375 73.3281 586.844 73.8359C587.326 74.3438 587.566 75.0273 587.566 75.8867C587.566 76.5247 587.273 78.0091 586.688 80.3398C586.453 81.2643 586.277 81.9935 586.16 82.5273C585.796 84.0247 585.535 85.1706 585.379 85.9648C585.236 86.7591 585.164 87.332 585.164 87.6836C585.164 88.0482 585.229 88.3346 585.359 88.543C585.49 88.7383 585.678 88.8359 585.926 88.8359C586.173 88.8359 586.492 88.7057 586.883 88.4453C587.273 88.1849 587.807 87.7422 588.484 87.1172ZM602.781 64.7539C602.339 67.3841 601.232 71.5182 599.461 77.1562C598.549 80.0859 597.872 82.3255 597.43 83.875L595.066 84.4414C595.613 81.056 596.089 77.8203 596.492 74.7344C596.909 71.6354 597.26 68.6276 597.547 65.7109L602.781 64.7539ZM595.906 86.5117L597.254 87.8398C597.645 88.2044 597.924 88.543 598.094 88.8555C598.263 89.168 598.348 89.4935 598.348 89.832C598.348 90.2878 598.204 90.6914 597.918 91.043C597.645 91.3815 597.176 91.7266 596.512 92.0781L594.656 93.0352L593.27 91.6875C592.879 91.2969 592.612 90.9648 592.469 90.6914C592.326 90.418 592.254 90.1185 592.254 89.793C592.254 89.3242 592.397 88.9141 592.684 88.5625C592.97 88.1979 593.445 87.8398 594.109 87.4883L595.906 86.5117Z" fill="white"/>
<path d="M527.955 96.1776C526.688 118.076 515.457 136.517 510 143C536.193 115.915 552.247 118.268 557 122.83L551.719 110.585C544.326 96.6579 529.222 74.2792 527.955 96.1776Z" fill="#AE2B7A"/>
<rect width="224" height="87" rx="43.5" transform="matrix(1 0 0 -1 553 411)" fill="#BF74A2"/>
<path d="M603.965 377.309C604.382 377.842 604.831 378.246 605.312 378.52C605.807 378.793 606.322 378.93 606.855 378.93C608.366 378.93 609.648 377.96 610.703 376.02C611.758 374.079 612.285 371.671 612.285 368.793C612.285 367.673 612.135 366.827 611.836 366.254C611.536 365.681 611.087 365.395 610.488 365.395C610.02 365.395 609.408 365.642 608.652 366.137C607.897 366.618 606.738 367.549 605.176 368.93L604.492 373.168C604.323 374.353 604.199 375.238 604.121 375.824C604.056 376.397 604.004 376.892 603.965 377.309ZM608.379 350.512C608.079 351.996 607.786 353.5 607.5 355.023C607.227 356.534 606.96 358.057 606.699 359.594L605.449 366.527L607.539 364.594C608.711 363.526 609.655 362.803 610.371 362.426C611.087 362.035 611.81 361.84 612.539 361.84C613.893 361.84 614.974 362.4 615.781 363.52C616.602 364.639 617.012 366.143 617.012 368.031C617.012 369.607 616.745 371.15 616.211 372.66C615.69 374.171 614.928 375.564 613.926 376.84C612.728 378.376 611.354 379.555 609.805 380.375C608.255 381.195 606.628 381.605 604.922 381.605C603.789 381.605 602.721 381.345 601.719 380.824C600.716 380.29 599.85 379.535 599.121 378.559L602.969 356.195C603.034 355.818 603.079 355.473 603.105 355.16C603.145 354.835 603.164 354.581 603.164 354.398C603.164 353.969 603.06 353.663 602.852 353.48C602.643 353.298 602.285 353.207 601.777 353.207C601.595 353.207 601.289 353.227 600.859 353.266C600.781 353.266 600.71 353.272 600.645 353.285L600.449 351.801C601.725 351.671 603.021 351.501 604.336 351.293C605.664 351.072 607.012 350.811 608.379 350.512ZM627.031 379.281C628.516 379.281 629.766 378.285 630.781 376.293C631.797 374.301 632.305 371.846 632.305 368.93C632.305 367.432 632.051 366.299 631.543 365.531C631.035 364.75 630.293 364.359 629.316 364.359C627.78 364.359 626.491 365.336 625.449 367.289C624.421 369.229 623.906 371.677 623.906 374.633C623.906 376.156 624.173 377.315 624.707 378.109C625.241 378.891 626.016 379.281 627.031 379.281ZM619.082 374.281C619.082 372.51 619.447 370.798 620.176 369.145C620.918 367.491 621.966 366.046 623.32 364.809C624.323 363.871 625.41 363.161 626.582 362.68C627.767 362.198 628.984 361.957 630.234 361.957C632.383 361.957 634.069 362.602 635.293 363.891C636.53 365.18 637.148 366.951 637.148 369.203C637.148 372.562 636.055 375.479 633.867 377.953C631.693 380.414 629.082 381.645 626.035 381.645C623.887 381.645 622.188 380.987 620.938 379.672C619.701 378.344 619.082 376.547 619.082 374.281ZM646.875 367.309L649.551 364.848C650.827 363.65 651.777 362.882 652.402 362.543C653.04 362.204 653.685 362.035 654.336 362.035C655.378 362.035 656.198 362.393 656.797 363.109C657.409 363.826 657.715 364.802 657.715 366.039C657.715 367.263 657.422 369.105 656.836 371.566C656.263 374.014 655.977 375.746 655.977 376.762C655.977 377.126 656.035 377.406 656.152 377.602C656.283 377.784 656.465 377.875 656.699 377.875C656.855 377.875 657.038 377.823 657.246 377.719C657.454 377.615 657.663 377.471 657.871 377.289L659.102 376.156L659.785 377.602L657.988 379.242C657.129 380.01 656.387 380.577 655.762 380.941C655.137 381.306 654.583 381.488 654.102 381.488C653.268 381.488 652.611 381.176 652.129 380.551C651.66 379.913 651.426 379.034 651.426 377.914C651.426 376.794 651.706 375.03 652.266 372.621C652.826 370.199 653.105 368.448 653.105 367.367C653.105 366.938 652.995 366.599 652.773 366.352C652.552 366.091 652.266 365.961 651.914 365.961C651.237 365.961 649.831 366.885 647.695 368.734C647.174 369.19 646.764 369.548 646.465 369.809L645.234 376.527C645.039 377.517 644.896 378.305 644.805 378.891C644.727 379.477 644.668 380.03 644.629 380.551L639.746 381.488C640.566 377.947 641.211 374.913 641.68 372.387C642.148 369.861 642.383 368.188 642.383 367.367C642.383 366.833 642.292 366.423 642.109 366.137C641.94 365.837 641.699 365.688 641.387 365.688C641.152 365.688 640.553 365.967 639.59 366.527L639.453 366.586L638.867 365.199C639.219 364.965 639.707 364.633 640.332 364.203C642.389 362.758 643.848 362.035 644.707 362.035C645.384 362.035 645.944 362.341 646.387 362.953C646.842 363.565 647.07 364.353 647.07 365.316C647.07 365.577 647.051 365.876 647.012 366.215C646.986 366.54 646.94 366.905 646.875 367.309ZM670.098 350.922L671.504 352.367C671.868 352.758 672.116 353.083 672.246 353.344C672.389 353.604 672.461 353.878 672.461 354.164C672.461 354.555 672.331 354.913 672.07 355.238C671.81 355.564 671.419 355.87 670.898 356.156L668.887 357.23L667.539 355.766C667.513 355.727 667.467 355.681 667.402 355.629C666.829 355.004 666.543 354.451 666.543 353.969C666.543 353.578 666.667 353.227 666.914 352.914C667.161 352.602 667.552 352.296 668.086 351.996L670.098 350.922ZM670.02 367.035L668.379 377.035C667.975 379.509 667.578 381.41 667.188 382.738C666.797 384.066 666.328 385.18 665.781 386.078C664.805 387.693 663.561 388.988 662.051 389.965C660.54 390.954 659.062 391.449 657.617 391.449C656.602 391.449 655.781 391.228 655.156 390.785C654.531 390.355 654.219 389.802 654.219 389.125C654.219 388.865 654.297 388.604 654.453 388.344C654.596 388.096 654.811 387.849 655.098 387.602L656.133 386.684C656.693 387.361 657.24 387.868 657.773 388.207C658.294 388.546 658.802 388.715 659.297 388.715C660.286 388.715 661.061 388.194 661.621 387.152C662.181 386.111 662.754 383.884 663.34 380.473L664.062 376.391C664.505 373.865 664.85 371.729 665.098 369.984C665.358 368.24 665.488 367.139 665.488 366.684C665.488 366.319 665.423 366.039 665.293 365.844C665.176 365.648 665.007 365.551 664.785 365.551C664.629 365.551 664.395 365.622 664.082 365.766C663.783 365.896 663.255 366.176 662.5 366.605L661.855 365.121L664.219 363.754C665.247 363.129 666.068 362.693 666.68 362.445C667.292 362.198 667.832 362.074 668.301 362.074C668.952 362.074 669.447 362.283 669.785 362.699C670.124 363.116 670.293 363.721 670.293 364.516C670.293 364.75 670.273 365.036 670.234 365.375C670.208 365.701 670.137 366.254 670.02 367.035ZM681.758 379.281C683.242 379.281 684.492 378.285 685.508 376.293C686.523 374.301 687.031 371.846 687.031 368.93C687.031 367.432 686.777 366.299 686.27 365.531C685.762 364.75 685.02 364.359 684.043 364.359C682.507 364.359 681.217 365.336 680.176 367.289C679.147 369.229 678.633 371.677 678.633 374.633C678.633 376.156 678.9 377.315 679.434 378.109C679.967 378.891 680.742 379.281 681.758 379.281ZM673.809 374.281C673.809 372.51 674.173 370.798 674.902 369.145C675.645 367.491 676.693 366.046 678.047 364.809C679.049 363.871 680.137 363.161 681.309 362.68C682.493 362.198 683.711 361.957 684.961 361.957C687.109 361.957 688.796 362.602 690.02 363.891C691.257 365.18 691.875 366.951 691.875 369.203C691.875 372.562 690.781 375.479 688.594 377.953C686.419 380.414 683.809 381.645 680.762 381.645C678.613 381.645 676.914 380.987 675.664 379.672C674.427 378.344 673.809 376.547 673.809 374.281ZM714.434 377.641L711.914 379.848C711.263 380.395 710.684 380.798 710.176 381.059C709.668 381.319 709.18 381.449 708.711 381.449C707.943 381.449 707.318 381.143 706.836 380.531C706.354 379.906 706.113 379.086 706.113 378.07C706.113 377.732 706.126 377.387 706.152 377.035C706.178 376.684 706.217 376.339 706.27 376C703.952 378.253 702.253 379.75 701.172 380.492C700.104 381.234 699.206 381.605 698.477 381.605C697.604 381.605 696.868 381.215 696.27 380.434C695.684 379.652 695.391 378.656 695.391 377.445C695.391 376.378 695.762 374.392 696.504 371.488C696.595 371.137 696.667 370.863 696.719 370.668C697.044 369.379 697.279 368.422 697.422 367.797C697.565 367.172 697.637 366.762 697.637 366.566C697.637 366.215 697.572 365.948 697.441 365.766C697.311 365.57 697.122 365.473 696.875 365.473C696.693 365.473 696.374 365.564 695.918 365.746C695.462 365.928 694.967 366.176 694.434 366.488L693.906 365.121L694.551 364.711C697.233 362.979 698.939 362.113 699.668 362.113C700.397 362.113 700.983 362.393 701.426 362.953C701.882 363.5 702.109 364.223 702.109 365.121C702.109 366.228 701.764 368.025 701.074 370.512C700.384 372.999 700.039 374.763 700.039 375.805C700.039 376.326 700.13 376.716 700.312 376.977C700.495 377.237 700.775 377.367 701.152 377.367C701.582 377.367 702.246 377.042 703.145 376.391C704.043 375.74 705.176 374.757 706.543 373.441C706.868 371.944 707.181 370.362 707.48 368.695C707.78 367.016 708.099 365.141 708.438 363.07L713.32 362.113C713.177 362.634 712.969 363.493 712.695 364.691C712.435 365.889 712.122 367.406 711.758 369.242L711.27 371.605C710.996 372.986 710.794 374.092 710.664 374.926C710.534 375.746 710.469 376.358 710.469 376.762C710.469 377.126 710.527 377.406 710.645 377.602C710.775 377.784 710.957 377.875 711.191 377.875C711.413 377.875 711.745 377.732 712.188 377.445C712.643 377.159 713.19 376.729 713.828 376.156L714.434 377.641ZM716.738 381.527C717.572 378.168 718.236 375.167 718.73 372.523C719.225 369.867 719.473 368.077 719.473 367.152C719.473 366.697 719.382 366.339 719.199 366.078C719.017 365.818 718.77 365.688 718.457 365.688C718.171 365.688 717.546 365.993 716.582 366.605C716.439 366.684 716.335 366.749 716.27 366.801L715.586 365.355L715.645 365.316C718.6 363.129 720.514 362.035 721.387 362.035C722.103 362.035 722.637 362.296 722.988 362.816C723.353 363.324 723.535 364.079 723.535 365.082C723.535 365.551 723.496 366.117 723.418 366.781C723.34 367.445 723.223 368.227 723.066 369.125C724.824 366.247 726.133 364.353 726.992 363.441C727.865 362.53 728.691 362.074 729.473 362.074C729.993 362.074 730.423 362.263 730.762 362.641C731.1 363.018 731.27 363.513 731.27 364.125C731.27 364.464 731.146 364.913 730.898 365.473C730.664 366.02 730.28 366.729 729.746 367.602C729.46 367.25 729.173 366.99 728.887 366.82C728.6 366.651 728.314 366.566 728.027 366.566C727.467 366.566 726.836 366.918 726.133 367.621C725.43 368.324 724.486 369.555 723.301 371.312C722.871 373.07 722.507 374.717 722.207 376.254C721.921 377.777 721.699 379.229 721.543 380.609L716.738 381.527Z" fill="white"/>
<path d="M565.955 350.822C564.688 328.924 553.457 310.483 548 304C574.193 331.085 590.247 328.732 595 324.17L589.719 336.415C582.326 350.342 567.222 372.721 565.955 350.822Z" fill="#BF74A2"/>
<rect width="164" height="87" rx="43.5" transform="matrix(-1 0 0 1 224 0)" fill="#DB4EA3"/>
<path d="M111.56 22.28C109.56 27.96 106.08 33.64 102.48 37.24C103.28 38.4 104.6 41 105.04 42.2C105.92 41.24 106.84 40.16 107.72 38.96V59.4H112.28V31.88C113.76 29.24 115.04 26.44 116.08 23.68L111.56 22.28ZM118.96 39.92C118.04 44.36 116.36 48.88 114.08 51.68C115.24 52.28 117.24 53.48 118.16 54.24C120.4 51 122.44 45.96 123.6 40.88L118.96 39.92ZM135.6 33.68C135.4 35.44 135.16 37.12 134.96 38.36L139 39.04C139.56 36.72 140.24 33 140.72 29.76L137.36 29.12L136.6 29.28H122.84C123.56 27.32 124.2 25.36 124.72 23.32L120.08 22.28C118.72 27.76 116.32 33.28 113.28 36.68C114.36 37.4 116.28 38.96 117.12 39.8C118.44 38.12 119.76 36 120.88 33.68H125.52V54.08C125.52 54.6 125.32 54.76 124.8 54.76C124.24 54.76 122.56 54.76 120.88 54.72C121.6 56 122.32 58.12 122.52 59.52C125.08 59.52 127 59.32 128.4 58.56C129.84 57.76 130.24 56.44 130.24 54.16V33.68H135.6ZM131.68 40.96C133.6 45.08 135.28 50.56 135.72 54.12L140.28 52.56C139.72 48.96 138 43.64 135.92 39.52L131.68 40.96ZM154.52 34.44C154.04 38.52 153.28 42.12 152.12 45.24C151.12 44.52 150.12 43.84 149.16 43.24C149.8 40.44 150.44 37.48 151.08 34.44H154.52ZM156.4 29.96L155.6 30.08H152C152.52 27.48 153 24.92 153.4 22.56L148.92 22.16C148.56 24.6 148.08 27.32 147.56 30.08H143.6V34.44H146.72C145.76 39.08 144.76 43.56 143.84 46.84L147.76 48.88L148.08 47.64C148.8 48.16 149.52 48.72 150.24 49.28C148.56 52.2 146.4 54.44 143.72 55.84C144.68 56.72 145.92 58.4 146.56 59.6C149.52 57.76 151.92 55.4 153.84 52.28C155.28 53.64 156.52 54.96 157.36 56.08L160.24 52.24C159.24 50.96 157.68 49.52 155.92 48.08C157.76 43.48 158.84 37.68 159.28 30.4L156.4 29.96ZM180.72 37.96H171.92V35.68C174.72 33.04 177.68 29.32 179.8 26.2L176.68 23.88L175.72 24.12H160.08V28.52H172.52C171.4 30.2 170 31.96 168.68 33.32H167.2V37.96H158.76V42.44H167.2V54.12C167.2 54.68 167 54.84 166.32 54.84C165.68 54.88 163.56 54.84 161.52 54.76C162.2 56.08 163 58.12 163.24 59.44C166.16 59.48 168.32 59.32 169.92 58.56C171.48 57.84 171.92 56.56 171.92 54.16V42.44H180.72V37.96Z" fill="white"/>
<path d="M211.045 60.1776C212.312 82.0761 223.543 100.517 229 107C202.807 79.915 186.753 82.2682 182 86.8304L187.281 74.5845C194.674 60.6579 209.778 38.2792 211.045 60.1776Z" fill="#DB4EA3"/>
<rect x="237" y="373" width="179" height="87" rx="43.5" transform="rotate(-180 237 373)" fill="#F097CD"/>
<path d="M120.02 326.117L118.77 327.191C118.066 326.319 117.461 325.714 116.953 325.375C116.445 325.023 115.931 324.848 115.41 324.848C114.121 324.848 113.079 325.661 112.285 327.289C111.491 328.904 111.094 331.046 111.094 333.715C111.094 335.121 111.322 336.208 111.777 336.977C112.233 337.745 112.871 338.129 113.691 338.129C114.238 338.129 114.922 337.862 115.742 337.328C116.562 336.794 117.52 336.007 118.613 334.965L119.492 336.762C117.826 338.493 116.374 339.743 115.137 340.512C113.9 341.267 112.728 341.645 111.621 341.645C110.072 341.645 108.802 340.987 107.812 339.672C106.823 338.344 106.328 336.612 106.328 334.477C106.328 332.784 106.667 331.117 107.344 329.477C108.021 327.823 108.965 326.371 110.176 325.121C111.191 324.066 112.292 323.279 113.477 322.758C114.674 322.224 115.964 321.957 117.344 321.957C118.411 321.957 119.297 322.191 120 322.66C120.703 323.129 121.055 323.708 121.055 324.398C121.055 324.711 120.977 324.997 120.82 325.258C120.664 325.518 120.397 325.805 120.02 326.117ZM131.191 310.922L132.637 312.367C132.962 312.693 133.203 313.005 133.359 313.305C133.516 313.591 133.594 313.891 133.594 314.203C133.594 314.581 133.464 314.926 133.203 315.238C132.943 315.551 132.539 315.857 131.992 316.156L130.02 317.23L128.672 315.766L128.594 315.688C127.982 315.023 127.676 314.451 127.676 313.969C127.676 313.578 127.799 313.22 128.047 312.895C128.294 312.569 128.672 312.27 129.18 311.996L131.191 310.922ZM131.914 336.117L132.578 337.641C130.924 339.19 129.668 340.232 128.809 340.766C127.949 341.299 127.155 341.566 126.426 341.566C125.632 341.566 125.007 341.286 124.551 340.727C124.095 340.167 123.867 339.392 123.867 338.402C123.867 337.556 124.225 335.707 124.941 332.855C125.033 332.491 125.098 332.224 125.137 332.055C125.501 330.609 125.775 329.438 125.957 328.539C126.139 327.641 126.23 326.996 126.23 326.605C126.23 326.28 126.146 326.02 125.977 325.824C125.807 325.616 125.586 325.512 125.312 325.512C125.091 325.512 124.811 325.583 124.473 325.727C124.134 325.87 123.691 326.111 123.145 326.449L122.5 325.082L125.195 323.324C125.807 322.908 126.38 322.595 126.914 322.387C127.461 322.178 127.949 322.074 128.379 322.074C129.173 322.074 129.805 322.328 130.273 322.836C130.755 323.344 130.996 324.027 130.996 324.887C130.996 325.525 130.703 327.009 130.117 329.34C129.883 330.264 129.707 330.993 129.59 331.527C129.225 333.025 128.965 334.171 128.809 334.965C128.665 335.759 128.594 336.332 128.594 336.684C128.594 337.048 128.659 337.335 128.789 337.543C128.919 337.738 129.108 337.836 129.355 337.836C129.603 337.836 129.922 337.706 130.312 337.445C130.703 337.185 131.237 336.742 131.914 336.117ZM147.969 325.355C147.5 325.03 147.051 324.796 146.621 324.652C146.204 324.509 145.775 324.438 145.332 324.438C143.848 324.438 142.487 325.531 141.25 327.719C140.026 329.906 139.414 332.4 139.414 335.199C139.414 336.098 139.531 336.775 139.766 337.23C140 337.686 140.352 337.914 140.82 337.914C141.224 337.914 141.888 337.569 142.812 336.879C143.75 336.176 144.974 335.095 146.484 333.637C146.68 332.699 146.895 331.586 147.129 330.297C147.363 328.995 147.643 327.348 147.969 325.355ZM153.008 321.645C152.161 325.98 151.543 329.34 151.152 331.723C150.762 334.105 150.566 335.733 150.566 336.605C150.566 337.009 150.632 337.315 150.762 337.523C150.905 337.732 151.107 337.836 151.367 337.836C151.562 337.836 151.81 337.732 152.109 337.523C152.422 337.315 153.014 336.82 153.887 336.039L154.531 337.602L153.223 338.832C152.129 339.848 151.25 340.564 150.586 340.98C149.922 341.397 149.329 341.605 148.809 341.605C147.975 341.605 147.331 341.293 146.875 340.668C146.432 340.03 146.211 339.125 146.211 337.953C146.211 337.745 146.217 337.484 146.23 337.172C146.257 336.846 146.289 336.488 146.328 336.098C144.01 338.272 142.305 339.717 141.211 340.434C140.13 341.137 139.173 341.488 138.34 341.488C137.246 341.488 136.38 341.013 135.742 340.062C135.117 339.112 134.805 337.81 134.805 336.156C134.805 334.503 135.072 332.908 135.605 331.371C136.139 329.835 136.914 328.402 137.93 327.074C139.154 325.486 140.514 324.255 142.012 323.383C143.522 322.51 145.046 322.074 146.582 322.074C147.09 322.074 147.598 322.133 148.105 322.25C148.613 322.354 149.141 322.523 149.688 322.758L153.008 321.645ZM163.828 339.281C165.312 339.281 166.562 338.285 167.578 336.293C168.594 334.301 169.102 331.846 169.102 328.93C169.102 327.432 168.848 326.299 168.34 325.531C167.832 324.75 167.09 324.359 166.113 324.359C164.577 324.359 163.288 325.336 162.246 327.289C161.217 329.229 160.703 331.677 160.703 334.633C160.703 336.156 160.97 337.315 161.504 338.109C162.038 338.891 162.812 339.281 163.828 339.281ZM155.879 334.281C155.879 332.51 156.243 330.798 156.973 329.145C157.715 327.491 158.763 326.046 160.117 324.809C161.12 323.871 162.207 323.161 163.379 322.68C164.564 322.198 165.781 321.957 167.031 321.957C169.18 321.957 170.866 322.602 172.09 323.891C173.327 325.18 173.945 326.951 173.945 329.203C173.945 332.562 172.852 335.479 170.664 337.953C168.49 340.414 165.879 341.645 162.832 341.645C160.684 341.645 158.984 340.987 157.734 339.672C156.497 338.344 155.879 336.547 155.879 334.281ZM187.5 313.754C187.057 316.384 185.951 320.518 184.18 326.156C183.268 329.086 182.591 331.326 182.148 332.875L179.785 333.441C180.332 330.056 180.807 326.82 181.211 323.734C181.628 320.635 181.979 317.628 182.266 314.711L187.5 313.754ZM180.625 335.512L181.973 336.84C182.363 337.204 182.643 337.543 182.812 337.855C182.982 338.168 183.066 338.493 183.066 338.832C183.066 339.288 182.923 339.691 182.637 340.043C182.363 340.382 181.895 340.727 181.23 341.078L179.375 342.035L177.988 340.688C177.598 340.297 177.331 339.965 177.188 339.691C177.044 339.418 176.973 339.118 176.973 338.793C176.973 338.324 177.116 337.914 177.402 337.562C177.689 337.198 178.164 336.84 178.828 336.488L180.625 335.512Z" fill="white"/>
<path d="M224.045 312.822C225.312 290.924 236.543 272.483 242 266C215.807 293.085 199.753 290.732 195 286.17L200.281 298.415C207.674 312.342 222.778 334.721 224.045 312.822Z" fill="#F097CD"/>
</svg>
