<svg width="1026" height="411" viewBox="0 0 1026 411" fill="none" xmlns="http://www.w3.org/2000/svg">
<rect x="632" y="36" width="271" height="87" rx="43.5" fill="#AE2B7A"/>
<path d="M681.145 94H686.514L690.605 79.2557H690.903L694.994 94H700.349L706.528 72.1818H701.273L697.494 87.4375H697.281L693.361 72.1818H688.176L684.256 87.5227H684.057L680.222 72.1818H674.98L681.145 94ZM719.192 94.4261C724.277 94.4261 727.771 91.9403 728.68 88.1477L723.879 87.608C723.183 89.4545 721.479 90.4205 719.263 90.4205C715.939 90.4205 713.737 88.233 713.695 84.4972H728.893V82.9205C728.893 75.2642 724.291 71.8977 718.922 71.8977C712.672 71.8977 708.595 76.4858 708.595 83.2188C708.595 90.0653 712.615 94.4261 719.192 94.4261ZM713.709 81.0312C713.865 78.2472 715.925 75.9034 718.993 75.9034C721.947 75.9034 723.936 78.0625 723.964 81.0312H713.709ZM738.386 64.9091H733.244V94H738.386V64.9091ZM753.19 94.4261C758.673 94.4261 762.168 91.1733 762.537 86.5426H757.622C757.182 88.8864 755.491 90.2358 753.233 90.2358C750.023 90.2358 747.949 87.5511 747.949 83.0909C747.949 78.6875 750.065 76.0455 753.233 76.0455C755.705 76.0455 757.224 77.6364 757.622 79.7386H762.537C762.182 75.0085 758.489 71.8977 753.162 71.8977C746.77 71.8977 742.736 76.5142 742.736 83.1761C742.736 89.7812 746.67 94.4261 753.19 94.4261ZM776.276 94.4261C782.668 94.4261 786.731 89.9233 786.731 83.1761C786.731 76.4148 782.668 71.8977 776.276 71.8977C769.884 71.8977 765.822 76.4148 765.822 83.1761C765.822 89.9233 769.884 94.4261 776.276 94.4261ZM776.305 90.3068C772.768 90.3068 771.035 87.1534 771.035 83.1619C771.035 79.1705 772.768 75.9744 776.305 75.9744C779.785 75.9744 781.518 79.1705 781.518 83.1619C781.518 87.1534 779.785 90.3068 776.305 90.3068ZM791.095 94H796.237V80.733C796.237 78.0483 798.027 76.2301 800.243 76.2301C802.416 76.2301 803.908 77.6932 803.908 79.9375V94H808.95V80.392C808.95 77.9347 810.413 76.2301 812.899 76.2301C814.973 76.2301 816.621 77.4517 816.621 80.1506V94H821.777V79.3551C821.777 74.483 818.964 71.8977 814.959 71.8977C811.791 71.8977 809.376 73.4602 808.411 75.8892H808.183C807.345 73.4176 805.229 71.8977 802.288 71.8977C799.362 71.8977 797.175 73.4034 796.266 75.8892H796.01V72.1818H791.095V94ZM836.653 94.4261C841.738 94.4261 845.232 91.9403 846.141 88.1477L841.34 87.608C840.644 89.4545 838.94 90.4205 836.724 90.4205C833.4 90.4205 831.198 88.233 831.156 84.4972H846.354V82.9205C846.354 75.2642 841.752 71.8977 836.383 71.8977C830.133 71.8977 826.056 76.4858 826.056 83.2188C826.056 90.0653 830.076 94.4261 836.653 94.4261ZM831.17 81.0312C831.326 78.2472 833.386 75.9034 836.454 75.9034C839.408 75.9034 841.397 78.0625 841.425 81.0312H831.17ZM856.997 64.9091H851.5L851.955 85.4489H856.528L856.997 64.9091ZM854.241 94.3125C855.918 94.3125 857.352 92.9205 857.366 91.1875C857.352 89.483 855.918 88.0909 854.241 88.0909C852.509 88.0909 851.102 89.483 851.116 91.1875C851.102 92.9205 852.509 94.3125 854.241 94.3125Z" fill="white"/>
<path d="M644.955 96.1776C643.688 118.076 632.457 136.517 627 143C653.193 115.915 669.247 118.268 674 122.83L668.719 110.585C661.326 96.6579 646.222 74.2792 644.955 96.1776Z" fill="#AE2B7A"/>
<rect width="356" height="87" rx="43.5" transform="matrix(1 0 0 -1 670 411)" fill="#BF74A2"/>
<path d="M725.599 386.636C731.494 386.636 735.841 383.938 735.841 378.355V356.182H730.77V359.79H730.486C729.705 358.213 728.071 355.898 724.222 355.898C719.179 355.898 715.216 359.847 715.216 367.02C715.216 374.136 719.179 377.688 724.207 377.688C727.943 377.688 729.69 375.685 730.486 374.08H730.741V378.213C730.741 381.423 728.611 382.744 725.685 382.744C722.588 382.744 721.224 381.281 720.599 380.003L715.969 381.125C716.906 384.179 720.045 386.636 725.599 386.636ZM725.642 373.653C722.247 373.653 720.457 371.011 720.457 366.991C720.457 363.028 722.219 360.116 725.642 360.116C728.952 360.116 730.77 362.858 730.77 366.991C730.77 371.153 728.923 373.653 725.642 373.653ZM750.628 378.426C757.02 378.426 761.082 373.923 761.082 367.176C761.082 360.415 757.02 355.898 750.628 355.898C744.236 355.898 740.173 360.415 740.173 367.176C740.173 373.923 744.236 378.426 750.628 378.426ZM750.656 374.307C747.119 374.307 745.386 371.153 745.386 367.162C745.386 363.17 747.119 359.974 750.656 359.974C754.136 359.974 755.869 363.17 755.869 367.162C755.869 371.153 754.136 374.307 750.656 374.307ZM774.964 378.426C781.356 378.426 785.418 373.923 785.418 367.176C785.418 360.415 781.356 355.898 774.964 355.898C768.572 355.898 764.509 360.415 764.509 367.176C764.509 373.923 768.572 378.426 774.964 378.426ZM774.992 374.307C771.455 374.307 769.722 371.153 769.722 367.162C769.722 363.17 771.455 359.974 774.992 359.974C778.472 359.974 780.205 363.17 780.205 367.162C780.205 371.153 778.472 374.307 774.992 374.307ZM797.879 378.384C801.629 378.384 803.32 376.153 804.129 374.562H804.442V378H809.499V348.909H804.342V359.79H804.129C803.348 358.213 801.743 355.898 797.893 355.898C792.851 355.898 788.888 359.847 788.888 367.119C788.888 374.307 792.737 378.384 797.879 378.384ZM799.314 374.165C795.919 374.165 794.129 371.182 794.129 367.091C794.129 363.028 795.891 360.116 799.314 360.116C802.624 360.116 804.442 362.858 804.442 367.091C804.442 371.324 802.595 374.165 799.314 374.165ZM824.9 378H830.042V364.733C830.042 362.048 831.832 360.23 834.048 360.23C836.221 360.23 837.712 361.693 837.712 363.938V378H842.755V364.392C842.755 361.935 844.218 360.23 846.704 360.23C848.778 360.23 850.425 361.452 850.425 364.151V378H855.582V363.355C855.582 358.483 852.769 355.898 848.763 355.898C845.596 355.898 843.181 357.46 842.215 359.889H841.988C841.15 357.418 839.033 355.898 836.093 355.898C833.167 355.898 830.979 357.403 830.07 359.889H829.815V356.182H824.9V378ZM870.315 378.426C876.707 378.426 880.77 373.923 880.77 367.176C880.77 360.415 876.707 355.898 870.315 355.898C863.923 355.898 859.861 360.415 859.861 367.176C859.861 373.923 863.923 378.426 870.315 378.426ZM870.344 374.307C866.807 374.307 865.074 371.153 865.074 367.162C865.074 363.17 866.807 359.974 870.344 359.974C873.824 359.974 875.557 363.17 875.557 367.162C875.557 371.153 873.824 374.307 870.344 374.307ZM885.134 378H890.276V365.173C890.276 362.403 892.364 360.443 895.191 360.443C896.058 360.443 897.137 360.599 897.577 360.741V356.011C897.109 355.926 896.299 355.869 895.731 355.869C893.231 355.869 891.143 357.29 890.347 359.818H890.12V356.182H885.134V378ZM906.136 365.216C906.136 362.062 908.039 360.244 910.752 360.244C913.408 360.244 914.999 361.991 914.999 364.903V378H920.141V364.108C920.156 358.881 917.173 355.898 912.67 355.898C909.403 355.898 907.158 357.46 906.164 359.889H905.908V356.182H900.994V378H906.136V365.216ZM925.369 378H930.511V356.182H925.369V378ZM927.954 353.085C929.587 353.085 930.923 351.835 930.923 350.301C930.923 348.753 929.587 347.503 927.954 347.503C926.306 347.503 924.971 348.753 924.971 350.301C924.971 351.835 926.306 353.085 927.954 353.085ZM940.94 365.216C940.94 362.062 942.844 360.244 945.557 360.244C948.213 360.244 949.804 361.991 949.804 364.903V378H954.946V364.108C954.96 358.881 951.977 355.898 947.474 355.898C944.207 355.898 941.963 357.46 940.969 359.889H940.713V356.182H935.798V378H940.94V365.216ZM969.662 386.636C975.557 386.636 979.903 383.938 979.903 378.355V356.182H974.832V359.79H974.548C973.767 358.213 972.134 355.898 968.284 355.898C963.241 355.898 959.278 359.847 959.278 367.02C959.278 374.136 963.241 377.688 968.27 377.688C972.006 377.688 973.753 375.685 974.548 374.08H974.804V378.213C974.804 381.423 972.673 382.744 969.747 382.744C966.651 382.744 965.287 381.281 964.662 380.003L960.031 381.125C960.969 384.179 964.108 386.636 969.662 386.636ZM969.705 373.653C966.31 373.653 964.52 371.011 964.52 366.991C964.52 363.028 966.281 360.116 969.705 360.116C973.014 360.116 974.832 362.858 974.832 366.991C974.832 371.153 972.986 373.653 969.705 373.653Z" fill="white"/>
<path d="M682.955 350.822C681.688 328.924 670.457 310.483 665 304C691.193 331.085 707.247 328.732 712 324.17L706.719 336.415C699.326 350.342 684.222 372.721 682.955 350.822Z" fill="#BF74A2"/>
<rect width="341" height="87" rx="43.5" transform="matrix(-1 0 0 1 341 0)" fill="#DB4EA3"/>
<path d="M49.7841 44.2159C49.7841 41.0625 51.7443 39.2443 54.5 39.2443C57.1989 39.2443 58.7898 40.9631 58.7898 43.9034V57H63.9318V43.108C63.9318 37.8381 60.9489 34.8977 56.4176 34.8977C53.0653 34.8977 50.9347 36.4176 49.9261 38.8892H49.6705V27.9091H44.642V57H49.7841V44.2159ZM78.6903 57.4261C85.0824 57.4261 89.1449 52.9233 89.1449 46.1761C89.1449 39.4148 85.0824 34.8977 78.6903 34.8977C72.2983 34.8977 68.2358 39.4148 68.2358 46.1761C68.2358 52.9233 72.2983 57.4261 78.6903 57.4261ZM78.7188 53.3068C75.1818 53.3068 73.4489 50.1534 73.4489 46.1619C73.4489 42.1705 75.1818 38.9744 78.7188 38.9744C82.1989 38.9744 83.9318 42.1705 83.9318 46.1619C83.9318 50.1534 82.1989 53.3068 78.7188 53.3068ZM97.4261 57H102.795L106.886 42.2557H107.185L111.276 57H116.631L122.81 35.1818H117.554L113.776 50.4375H113.562L109.642 35.1818H104.457L100.537 50.5227H100.338L96.5028 35.1818H91.2614L97.4261 57ZM142.6 57.4403C146.023 57.4403 148.069 55.8352 149.006 54.0028H149.177V57H154.12V42.3977C154.12 36.6307 149.418 34.8977 145.256 34.8977C140.668 34.8977 137.146 36.9432 136.009 40.9205L140.81 41.6023C141.322 40.1108 142.771 38.8324 145.285 38.8324C147.671 38.8324 148.978 40.054 148.978 42.1989V42.2841C148.978 43.7614 147.43 43.8324 143.58 44.2443C139.347 44.6989 135.299 45.9631 135.299 50.8778C135.299 55.1676 138.438 57.4403 142.6 57.4403ZM143.935 53.6619C141.79 53.6619 140.256 52.6818 140.256 50.7926C140.256 48.8182 141.975 47.9943 144.276 47.6676C145.626 47.483 148.325 47.142 148.992 46.6023V49.1733C148.992 51.6023 147.032 53.6619 143.935 53.6619ZM159.29 57H164.433V44.1733C164.433 41.4034 166.521 39.4432 169.347 39.4432C170.214 39.4432 171.293 39.5994 171.734 39.7415V35.0114C171.265 34.9261 170.455 34.8693 169.887 34.8693C167.387 34.8693 165.299 36.2898 164.504 38.8182H164.276V35.1818H159.29V57ZM183.911 57.4261C188.996 57.4261 192.49 54.9403 193.399 51.1477L188.598 50.608C187.902 52.4545 186.197 53.4205 183.982 53.4205C180.658 53.4205 178.456 51.233 178.413 47.4972H193.612V45.9205C193.612 38.2642 189.01 34.8977 183.641 34.8977C177.391 34.8977 173.314 39.4858 173.314 46.2188C173.314 53.0653 177.334 57.4261 183.911 57.4261ZM178.428 44.0312C178.584 41.2472 180.643 38.9034 183.712 38.9034C186.666 38.9034 188.655 41.0625 188.683 44.0312H178.428ZM211.08 65.1818C215.086 65.1818 217.401 63.1222 218.637 59.642L227.401 35.2102L221.904 35.1818L216.862 51.6591H216.634L211.606 35.1818H206.151L214.063 57.4545L213.623 58.6335C212.671 61.1193 211.165 61.2898 208.921 60.6364L207.728 64.642C208.424 64.9261 209.674 65.1818 211.08 65.1818ZM239.745 57.4261C246.137 57.4261 250.2 52.9233 250.2 46.1761C250.2 39.4148 246.137 34.8977 239.745 34.8977C233.353 34.8977 229.29 39.4148 229.29 46.1761C229.29 52.9233 233.353 57.4261 239.745 57.4261ZM239.773 53.3068C236.237 53.3068 234.504 50.1534 234.504 46.1619C234.504 42.1705 236.237 38.9744 239.773 38.9744C243.254 38.9744 244.987 42.1705 244.987 46.1619C244.987 50.1534 243.254 53.3068 239.773 53.3068ZM268.47 47.8239C268.47 51.1477 266.098 52.7955 263.825 52.7955C261.354 52.7955 259.706 51.0483 259.706 48.2784V35.1818H254.564V49.0739C254.564 54.3153 257.547 57.2841 261.837 57.2841C265.104 57.2841 267.405 55.5653 268.399 53.1222H268.626V57H273.612V35.1818H268.47V47.8239ZM283.815 48.4489H288.545V48.0795C288.573 45.0682 289.553 43.6903 291.869 42.2699C294.482 40.7074 296.116 38.5767 296.116 35.3239C296.116 30.5227 292.38 27.5114 286.954 27.5114C281.982 27.5114 277.948 30.267 277.806 35.6648H282.863C282.991 32.9943 284.923 31.7159 286.925 31.7159C289.099 31.7159 290.846 33.1648 290.846 35.3949C290.846 37.3835 289.525 38.7472 287.806 39.8267C285.292 41.3892 283.843 42.9659 283.815 48.0795V48.4489ZM286.3 57.3125C287.977 57.3125 289.411 55.9205 289.425 54.1875C289.411 52.483 287.977 51.0909 286.3 51.0909C284.567 51.0909 283.161 52.483 283.175 54.1875C283.161 55.9205 284.567 57.3125 286.3 57.3125Z" fill="white"/>
<path d="M328.045 60.1776C329.312 82.0761 340.543 100.517 346 107C319.807 79.915 303.753 82.2682 299 86.8304L304.281 74.5845C311.674 60.6579 326.778 38.2792 328.045 60.1776Z" fill="#DB4EA3"/>
<rect x="354" y="373" width="179" height="87" rx="43.5" transform="rotate(-180 354 373)" fill="#F097CD"/>
<path d="M225.565 331.216C225.565 328.062 227.526 326.244 230.281 326.244C232.98 326.244 234.571 327.963 234.571 330.903V344H239.713V330.108C239.713 324.838 236.73 321.898 232.199 321.898C228.847 321.898 226.716 323.418 225.707 325.889H225.452V314.909H220.423V344H225.565V331.216ZM254.614 344.426C259.699 344.426 263.193 341.94 264.102 338.148L259.301 337.608C258.605 339.455 256.901 340.42 254.685 340.42C251.361 340.42 249.159 338.233 249.116 334.497H264.315V332.92C264.315 325.264 259.713 321.898 254.344 321.898C248.094 321.898 244.017 326.486 244.017 333.219C244.017 340.065 248.037 344.426 254.614 344.426ZM249.131 331.031C249.287 328.247 251.347 325.903 254.415 325.903C257.369 325.903 259.358 328.062 259.386 331.031H249.131ZM273.808 314.909H268.665V344H273.808V314.909ZM284.237 314.909H279.095V344H284.237V314.909ZM299.042 344.426C305.434 344.426 309.496 339.923 309.496 333.176C309.496 326.415 305.434 321.898 299.042 321.898C292.65 321.898 288.587 326.415 288.587 333.176C288.587 339.923 292.65 344.426 299.042 344.426ZM299.07 340.307C295.533 340.307 293.8 337.153 293.8 333.162C293.8 329.17 295.533 325.974 299.07 325.974C302.55 325.974 304.283 329.17 304.283 333.162C304.283 337.153 302.55 340.307 299.07 340.307Z" fill="white"/>
<path d="M341.045 312.822C342.312 290.924 353.543 272.483 359 266C332.807 293.085 316.753 290.732 312 286.17L317.281 298.415C324.674 312.342 339.778 334.721 341.045 312.822Z" fill="#F097CD"/>
</svg>
