<svg width="1243" height="405" viewBox="0 0 1243 405" fill="none" xmlns="http://www.w3.org/2000/svg">
<g opacity="0.85">
<line x1="100.833" y1="322.058" x2="234.833" y2="156.058" stroke="#C1C1C1" stroke-width="3"/>
<line x1="99.9553" y1="323.501" x2="401.955" y2="314.501" stroke="#C1C1C1" stroke-width="3"/>
<line x1="331.798" y1="115.514" x2="456.798" y2="98.5137" stroke="#C1C1C1" stroke-width="3"/>
<line x1="510.925" y1="309.502" x2="811.925" y2="294.502" stroke="#C1C1C1" stroke-width="3"/>
<line x1="509.999" y1="309.883" x2="787.999" y2="60.8827" stroke="#C1C1C1" stroke-width="3"/>
<line x1="566.92" y1="100.815" x2="812.92" y2="291.815" stroke="#C1C1C1" stroke-width="3"/>
<line x1="565.735" y1="100.524" x2="788.735" y2="60.5236" stroke="#C1C1C1" stroke-width="3"/>
<line x1="920.11" y1="297.793" x2="1137.11" y2="137.793" stroke="#C1C1C1" stroke-width="3"/>
<line x1="898.474" y1="57.577" x2="1138.47" y2="137.577" stroke="#C1C1C1" stroke-width="3"/>
<line x1="899.144" y1="58.0298" x2="1100.14" y2="295.03" stroke="#C1C1C1" stroke-width="3"/>
<line x1="920.983" y1="297.5" x2="1098.98" y2="295.5" stroke="#C1C1C1" stroke-width="3"/>
<g opacity="0.5">
<circle cx="54.5" cy="350.5" r="54.5" fill="#F7BADF"/>
<circle cx="277.5" cy="123.5" r="54.5" fill="#AE2192"/>
<circle cx="277.5" cy="123.5" r="54.5" fill="#AE2192"/>
<circle cx="277.5" cy="123.5" r="54.5" fill="#AE2192"/>
<circle cx="456.5" cy="313.5" r="54.5" fill="#AE2192"/>
<circle cx="456.5" cy="313.5" r="54.5" fill="#AE2192"/>
<circle cx="456.5" cy="313.5" r="54.5" fill="#E357AD"/>
<circle cx="511.5" cy="99.5" r="54.5" fill="#AE2192"/>
<circle cx="511.5" cy="99.5" r="54.5" fill="#AE2192"/>
<circle cx="511.5" cy="99.5" r="54.5" fill="#BF74A2"/>
<circle cx="866.5" cy="295.5" r="54.5" fill="#AE2192"/>
<circle cx="866.5" cy="295.5" r="54.5" fill="#AE2192"/>
<circle cx="866.5" cy="295.5" r="54.5" fill="#F11299"/>
<circle cx="843.5" cy="54.5" r="54.5" fill="#AE2192"/>
<circle cx="843.5" cy="54.5" r="54.5" fill="#AE2192"/>
<circle cx="843.5" cy="54.5" r="54.5" fill="#681246"/>
<circle cx="1188.5" cy="123.5" r="54.5" fill="#AE2192"/>
<circle cx="1188.5" cy="123.5" r="54.5" fill="#AE2192"/>
<circle cx="1188.5" cy="123.5" r="54.5" fill="#AD2192"/>
<circle cx="1153.5" cy="307.5" r="54.5" fill="#AE2192"/>
<circle cx="1153.5" cy="307.5" r="54.5" fill="#AE2192"/>
<circle cx="1153.5" cy="307.5" r="54.5" fill="#FACAE7"/>
</g>
</g>
</svg>
