<svg width="515" height="512" viewBox="0 0 515 512" fill="none" xmlns="http://www.w3.org/2000/svg">
<ellipse cx="258.318" cy="418.5" rx="122.5" ry="29.5" fill="url(#paint0_radial)"/>
<path fill-rule="evenodd" clip-rule="evenodd" d="M290.818 341.166C280.394 343.672 269.511 345 258.318 345C247.125 345 236.242 343.672 225.818 341.166V416.5C225.818 420.642 222.46 424 218.318 424C214.176 424 210.818 420.642 210.818 416.5V336.64C163.691 319.435 128.532 277.36 121.223 226.299C106.956 236.003 98.7921 251.513 94.5927 268.75C89.4861 289.711 90.5883 312.085 93.1926 326.133C93.9477 330.206 91.2582 334.119 87.1855 334.874C83.1127 335.629 79.199 332.94 78.444 328.867C75.5483 313.248 74.3005 288.672 80.0189 265.2C85.3335 243.385 96.9612 221.548 119.854 209.675C119.83 208.619 119.818 207.561 119.818 206.5C119.818 130.009 181.827 68 258.318 68C330.728 68 390.159 123.567 396.296 194.385C411.11 183.56 432.006 156.577 432.318 103.456C432.343 99.3138 435.72 95.9758 439.862 96.0001C444.004 96.0245 447.343 99.4021 447.318 103.544C446.932 169.154 417.009 201.629 396.723 211.677C394.608 269.231 357.375 317.817 305.818 336.64V416.5C305.818 420.642 302.46 424 298.318 424C294.176 424 290.818 420.642 290.818 416.5V341.166Z" fill="url(#paint1_linear)"/>
<circle cx="197.318" cy="226.5" r="14.5" fill="#333333"/>
<circle cx="318.318" cy="226.5" r="14.5" fill="#333333"/>
<path d="M189.818 269.216C205.49 287.205 229.519 298.716 256.457 298.716C284.486 298.716 309.364 286.254 324.957 267" stroke="#333333" stroke-width="15" stroke-linecap="round"/>
<defs>
<radialGradient id="paint0_radial" cx="0" cy="0" r="1" gradientUnits="userSpaceOnUse" gradientTransform="translate(257.818 419) rotate(17.1456) scale(98.3717 46.8092)">
<stop stop-color="#989898"/>
<stop offset="1" stop-color="#BABABA"/>
</radialGradient>
<linearGradient id="paint1_linear" x1="159" y1="113.5" x2="361.5" y2="303.5" gradientUnits="userSpaceOnUse">
<stop stop-color="#F3119A"/>
<stop offset="1" stop-color="#AD2192"/>
</linearGradient>
</defs>
</svg>
