<svg width="213" height="59" viewBox="0 0 213 59" fill="none" xmlns="http://www.w3.org/2000/svg">
<path d="M16.4279 28.2629L18.9878 28.931C19.6457 26.0932 17.6881 23.3987 14.1146 22.4661C10.584 21.5448 7.35133 22.8574 6.56002 25.8897C5.92115 28.3379 7.29919 30.2298 9.92585 31.7318L11.8567 32.8412C13.608 33.8304 14.8983 34.8277 14.4903 36.3911C14.042 38.1092 12.1054 38.8149 9.84614 38.2254C7.80168 37.6918 6.33844 36.3374 6.68371 34.3815L4.02076 33.6866C3.36091 36.9184 5.31295 39.5289 9.25584 40.5578C13.3877 41.636 16.3343 40.0836 17.1122 37.1028C17.9393 33.9331 15.4337 31.9672 13.3438 30.8346L11.7423 29.9396C10.4598 29.2287 8.79819 28.107 9.24615 26.4255C9.63619 24.9308 11.2912 24.1791 13.4559 24.744C15.4746 25.2708 16.6626 26.5901 16.4279 28.2629Z" fill="black"/>
<path d="M28.4805 44.827L31.2022 45.3415L37.4917 32.6707L37.6313 32.6971L38.8613 46.7894L41.5742 47.3023L49.9152 30.3753L47.0714 29.8377L40.9824 43.0252L40.8166 42.9939L39.8136 28.4656L37.0047 27.9346L30.769 41.0854L30.6033 41.0541L29.7382 26.5609L26.9031 26.0249L28.4805 44.827Z" fill="black"/>
<path d="M59.8131 31.6099L57.0935 31.25L54.7081 49.2746L57.4276 49.6346L59.8131 31.6099Z" fill="black"/>
<path d="M77.7923 38.2802L80.4279 38.5097C80.6008 35.6018 78.2192 33.2735 74.54 32.9532C70.9049 32.6367 67.938 34.4726 67.6662 37.5947C67.4467 40.1153 69.1224 41.7494 71.9637 42.7899L74.0532 43.56C75.9455 44.2416 77.3847 45.0085 77.2446 46.6182C77.0906 48.387 75.2997 49.4074 72.9736 49.2049C70.8686 49.0217 69.199 47.9317 69.2116 45.9455L66.4698 45.7068C66.361 49.0035 68.723 51.2499 72.7826 51.6033C77.0367 51.9737 79.6815 49.9493 79.9486 46.8803C80.2328 43.6167 77.4331 42.0987 75.1828 41.3324L73.454 40.7185C72.0705 40.2327 70.2443 39.4054 70.4041 37.6726C70.5381 36.1337 72.0437 35.1152 74.2725 35.3092C76.3509 35.4902 77.7432 36.5917 77.7923 38.2802Z" fill="black"/>
<path d="M99.1624 39.3209L101.807 39.3975C101.811 36.4844 99.299 34.2979 95.6074 34.191C91.9601 34.0854 89.1044 36.0899 89.0137 39.2224C88.9404 41.7516 90.7078 43.286 93.6046 44.1603L95.7351 44.8082C97.6637 45.3791 99.1449 46.0615 99.0981 47.6766C99.0467 49.4514 97.3179 50.5737 94.984 50.5061C92.8719 50.445 91.1421 49.4535 91.0396 47.4699L88.2887 47.3902C88.3708 50.6877 90.8589 52.7936 94.9321 52.9115C99.2005 53.0351 101.724 50.8612 101.813 47.7818C101.908 44.5073 99.0248 43.1538 96.734 42.519L94.9725 42.0062C93.5632 41.6012 91.6923 40.8809 91.7515 39.1418C91.7962 37.5977 93.2404 36.4938 95.4766 36.5586C97.5621 36.619 99.0158 37.638 99.1624 39.3209Z" fill="black"/>
<path d="M121.909 34.3967L123.152 52.536L125.756 52.3575L124.856 39.2225L125.024 39.211L131.272 51.9528L133.433 51.8047L137.885 38.3385L138.053 38.327L138.953 51.4532L141.557 51.2747L140.314 33.1354L136.992 33.3631L132.184 47.8592L131.971 47.8738L125.23 34.1691L121.909 34.3967Z" fill="black"/>
<path d="M152.778 50.009L153.782 45.0158L160.819 44.0562L163.114 48.5996L165.999 48.2062L157.06 31.0751L153.92 31.5033L149.893 50.4024L152.778 50.009ZM154.262 42.6208L155.87 34.5705L156.011 34.5513L159.716 41.8771L154.262 42.6208Z" fill="black"/>
<path d="M179.964 45.6638C185.396 44.5775 187.865 40.58 186.751 35.0085C185.642 29.4631 181.831 26.7487 176.582 27.7984L170.627 28.9891L174.193 46.818L179.964 45.6638ZM176.412 43.9296L173.787 30.8017L176.886 30.1819C180.787 29.402 183.264 31.333 184.105 35.5377C184.949 39.7599 183.412 42.5299 179.346 43.3429L176.412 43.9296Z" fill="black"/>
<path d="M197.836 41.7678L208.965 38.8479L208.366 36.5637L199.89 38.7874L198.478 33.4032L206.275 31.3575L205.678 29.0819L197.881 31.1276L196.475 25.7692L204.847 23.5726L204.248 21.2884L193.222 24.1812L197.836 41.7678Z" fill="black"/>
<rect x="96" width="20" height="20" rx="4" fill="#DA291C"/>
<path fill-rule="evenodd" clip-rule="evenodd" d="M108 3.69232H104V8.00001H99.6923L99.6923 12H104V16.3077H108V12H112.308V8.00001H108V3.69232Z" fill="white"/>
</svg>
